<?xml version="1.0" encoding="UTF-8"?>
<svg width="20px" height="20px" viewBox="0 0 20 20" version="1.1" xmlns="http://www.w3.org/2000/svg" xmlns:xlink="http://www.w3.org/1999/xlink">
    <!-- Generator: Sketch 47.1 (45422) - http://www.bohemiancoding.com/sketch -->
    <title>noun_1150990_cc</title>
    <desc>Created with Sketch.</desc>
    <defs></defs>
    <g id="Page-1" stroke="none" stroke-width="1" fill="none" fill-rule="evenodd">
        <g id="Artboard" transform="translate(-1285.000000, -134.000000)" fill-rule="nonzero" fill="#000000">
            <g id="social-medias" transform="translate(1282.000000, 74.000000)">
                <g id="Group">
                    <g id="noun_1150990_cc" transform="translate(3.000000, 60.000000)">
                        <path d="M14.4444444,0.555555556 L5.55555556,0.555555556 C2.79413181,0.555555556 0.555555556,2.79413181 0.555555556,5.55555556 L0.555555556,14.4444444 C0.555555556,17.2058682 2.79413181,19.4444444 5.55555556,19.4444444 L14.4444444,19.4444444 C15.7705269,19.4444444 17.0422965,18.9176602 17.9799784,17.9799784 C18.9176602,17.0422965 19.4444444,15.7705269 19.4444444,14.4444444 L19.4444444,5.55555556 C19.4444444,2.79413181 17.2058682,0.555555556 14.4444444,0.555555556 Z M18.3333333,14.4444444 C18.3333333,16.5922185 16.5922185,18.3333333 14.4444444,18.3333333 L5.55555556,18.3333333 C3.40778153,18.3333333 1.66666667,16.5922185 1.66666667,14.4444444 L1.66666667,5.55555556 C1.66666667,3.40778153 3.40778153,1.66666667 5.55555556,1.66666667 L14.4444444,1.66666667 C16.5922185,1.66666667 18.3333333,3.40778153 18.3333333,5.55555556 L18.3333333,14.4444444 Z" id="Shape"></path>
                        <path d="M10,5.55555556 C7.54540111,5.55555556 5.55555556,7.54540111 5.55555556,10 C5.55555556,12.4545989 7.54540111,14.4444444 10,14.4444444 C12.4545989,14.4444444 14.4444444,12.4545989 14.4444444,10 C14.4444444,8.82126005 13.9761918,7.69079821 13.1426968,6.85730319 C12.3092018,6.02380818 11.17874,5.55555556 10,5.55555556 Z M10,13.3333333 C8.15905083,13.3333333 6.66666667,11.8409492 6.66666667,10 C6.66666667,8.15905083 8.15905083,6.66666667 10,6.66666667 C11.8409492,6.66666667 13.3333333,8.15905083 13.3333333,10 C13.3333333,10.884055 12.9821439,11.7319013 12.3570226,12.3570226 C11.7319013,12.9821439 10.884055,13.3333333 10,13.3333333 Z" id="Shape"></path>
                        <path d="M15,3.88888889 C14.3863503,3.88888889 13.8888889,4.38635028 13.8888889,5 C13.8888889,5.61364972 14.3863503,6.11111111 15,6.11111111 C15.6136497,6.11111111 16.1111111,5.61364972 16.1111111,5 C16.1111111,4.38635028 15.6136497,3.88888889 15,3.88888889 Z" id="Shape"></path>
                    </g>
                </g>
            </g>
        </g>
    </g>
</svg>