<?xml version="1.0" encoding="UTF-8"?>
<svg width="21px" height="20px" viewBox="0 0 21 20" version="1.1" xmlns="http://www.w3.org/2000/svg" xmlns:xlink="http://www.w3.org/1999/xlink">
    <!-- Generator: Sketch 47.1 (45422) - http://www.bohemiancoding.com/sketch -->
    <title>snapchat</title>
    <desc>Created with Sketch.</desc>
    <defs></defs>
    <g id="Page-1" stroke="none" stroke-width="1" fill="none" fill-rule="evenodd">
        <g id="Artboard" transform="translate(-1284.000000, -260.000000)" fill-rule="nonzero" fill="#050505">
            <g id="social-medias" transform="translate(1282.000000, 74.000000)">
                <g id="Group">
                    <g id="snapchat" transform="translate(2.000000, 186.000000)">
                        <path d="M10.3228072,1.13823009 C13.0961665,1.13915929 15.4063359,3.45464602 15.4096891,6.24265487 C15.4104833,6.89566372 15.4305587,7.49699115 15.4673121,8.0509292 C15.4899907,8.39269912 15.7734286,8.64597345 16.0984734,8.64597345 C16.1463455,8.64597345 16.1951,8.64048673 16.2440751,8.6289823 L17.112876,8.42473451 C17.14985,8.4160177 17.1869564,8.41185841 17.2236215,8.41185841 C17.4442743,8.41185841 17.6474548,8.5630531 17.6970035,8.78699115 C17.7670247,9.10345133 17.5902289,9.42318584 17.2844654,9.53070796 L15.965667,10.0646018 C15.6327245,10.1993805 15.4538991,10.5627876 15.5476578,10.9103982 C16.6056967,14.8331416 19.5609258,14.425177 19.5609258,14.9362389 C19.5609258,15.5780088 17.3334405,15.6686283 17.1322013,15.8704867 C16.9309621,16.0723451 17.1234652,17.0519469 16.6738207,17.2415929 C16.5890629,17.2773451 16.4686547,17.2897788 16.3217734,17.2897788 C15.9830951,17.2897788 15.5041096,17.2234956 14.9992688,17.2234956 C14.5613607,17.2234956 14.1039949,17.2733628 13.7019136,17.459646 C12.6352268,17.9538053 11.6068376,18.8768142 10.3319845,18.8768142 C9.05713133,18.8768142 8.02874215,17.9538053 6.96205532,17.459646 C6.55988579,17.2733186 6.10265235,17.2234956 5.6647001,17.2234956 C5.15990344,17.2234956 4.68082974,17.2897788 4.3421955,17.2897788 C4.19540252,17.2897788 4.07486196,17.2773009 3.99014825,17.2415929 C3.54050374,17.0519469 3.73300683,16.0723451 3.53176764,15.8704867 C3.33052845,15.6686283 1.10304314,15.5779646 1.10304314,14.9361947 C1.10304314,14.4250885 4.05827219,14.8330531 5.11631117,10.910354 C5.21006984,10.5627876 5.03124448,10.1993805 4.69825782,10.0645575 L3.37945945,9.53066372 C3.07365177,9.42314159 2.89685601,9.10340708 2.96692131,8.7869469 C3.01647001,8.5629646 3.21965056,8.41176991 3.44030331,8.41181416 C3.47692434,8.41181416 3.51407483,8.41597345 3.55104884,8.42469027 L4.41984973,8.62893805 C4.46882485,8.64044248 4.51757936,8.6459292 4.56545143,8.6459292 C4.89045206,8.6459292 5.17393415,8.39261062 5.19661271,8.05088496 C5.23336611,7.4969469 5.25348562,6.89561947 5.25427981,6.24261062 C5.25763306,3.45464602 7.54940373,1.13920354 10.3228072,1.13823009 L10.3228072,1.13823009 Z M10.3231601,0.0320353982 L10.322763,0.0320353982 L10.3223659,0.0320353982 C9.49455412,0.032300885 8.68814134,0.199115044 7.92562968,0.527876106 C7.19369438,0.84340708 6.53495701,1.29331858 5.96772811,1.86513274 C5.40124928,2.43619469 4.95544336,3.09915929 4.64270857,3.83561947 C4.31753145,4.60141593 4.15216323,5.41079646 4.15114843,6.24128319 C4.15066309,6.64902655 4.14223584,7.04473451 4.12599904,7.42367257 L3.80276328,7.34765487 C3.68416408,7.31977876 3.56221163,7.30561947 3.44039155,7.30557522 C3.08860903,7.30553097 2.74159166,7.42477876 2.46327182,7.64132743 C2.17290674,7.86725664 1.96928498,8.1889823 1.88999824,8.54725664 C1.70128962,9.40004425 2.17083302,10.2609735 2.98452588,10.5637168 L3.95242417,10.955531 C3.31151199,12.9283628 2.12971157,13.3064159 1.33388801,13.5610619 C1.12272143,13.6286283 0.940322215,13.6869912 0.766659103,13.7734071 C0.0746980813,14.1178319 0,14.7013274 0,14.9361947 C0,15.3860619 0.212313743,15.7965929 0.597893503,16.0921239 C0.789867131,16.239292 1.02768323,16.360708 1.32488717,16.4633186 C1.72996874,16.6031858 2.19955626,16.6919469 2.58120919,16.7630973 C2.59965207,16.9049115 2.62669869,17.0572566 2.67227643,17.2107965 C2.86151451,17.8484513 3.26086025,18.1339823 3.56256461,18.2611947 C3.84882636,18.3819469 4.14461841,18.395885 4.3421955,18.395885 C4.53544865,18.395885 4.73973224,18.380708 4.95601694,18.364646 C5.1880531,18.3473894 5.42798704,18.3296018 5.6647001,18.3296018 C6.03152812,18.3296018 6.30459748,18.3734956 6.49948315,18.4637611 C6.76708141,18.5877434 7.05087235,18.7549115 7.3513413,18.9318584 C8.18780097,19.4245133 9.13584449,19.9829204 10.3319845,19.9829204 C11.5281244,19.9829204 12.4761238,19.4245133 13.3125835,18.9318584 C13.6130525,18.7548673 13.8968434,18.5877434 14.1644858,18.4637611 C14.3593715,18.3734513 14.6324408,18.3296018 14.9992688,18.3296018 C15.2359819,18.3296018 15.4759158,18.3474336 15.7079079,18.364646 C15.9241926,18.380708 16.1284762,18.395885 16.3217293,18.395885 C16.5193064,18.395885 16.8150543,18.3819469 17.1013602,18.2611947 C17.4030646,18.1339823 17.8024103,17.8484513 17.9916484,17.2107965 C18.0372261,17.0572566 18.0643169,16.9049115 18.0827156,16.7630973 C18.4643686,16.6919027 18.9340002,16.6031858 19.3390376,16.4633186 C19.6362857,16.360708 19.8740577,16.239292 20.0660313,16.0921239 C20.451567,15.7965929 20.6639248,15.3860619 20.6639248,14.9361947 C20.6639248,14.7013274 20.5892267,14.1178319 19.8971775,13.7734513 C19.7235144,13.6870354 19.5411151,13.6286726 19.3299486,13.5611062 C18.534125,13.3065044 17.3523246,12.9284071 16.7114124,10.9555752 L17.6792666,10.5637611 C18.4929594,10.2610177 18.962547,9.40004425 18.7738383,8.54725664 C18.6945516,8.1889823 18.4909298,7.86725664 18.2005648,7.64132743 C17.9222449,7.42482301 17.5753158,7.30557522 17.2236215,7.30557522 C17.1018014,7.30557522 16.979849,7.31973451 16.8611615,7.34761062 L16.5378817,7.42362832 C16.5216449,7.04473451 16.5132176,6.64902655 16.5127323,6.24123894 C16.5117175,5.4100885 16.3450256,4.5999115 16.0172453,3.83309735 C15.7026133,3.09699115 15.2543807,2.43420354 14.6850339,1.86309735 C14.1157313,1.2920354 13.4551408,0.842610619 12.7217054,0.527345133 C11.9577377,0.198982301 11.1507513,0.0323451327 10.3231601,0.0320353982 L10.3231601,0.0320353982 Z" id="Shape"></path>
                    </g>
                </g>
            </g>
        </g>
    </g>
</svg>